<?xml version="1.0" encoding="UTF-8"?>
<svg id="Layer_1" xmlns="http://www.w3.org/2000/svg" viewBox="0 0 348.48 367.45">
  <defs>
    <style>
      .cls-1 {
        fill: #f5f5f5;
      }

      .cls-2 {
        fill: #beb7df;
      }
    </style>
  </defs>
  <path class="cls-2" d="M301.81,92.86l-52.27,75.66-49.3-73.85c-9.41,7.02-13.06,14.36-16.63,24.77l51.5,74.33-.64,79.85c-.03,3.97,1.33,7.32,4.1,10.05,2.76,2.73,6.1,4.12,10.02,4.15,3.92.03,7.23-1.3,9.93-3.99,2.7-2.69,4.07-6.02,4.1-9.99l.64-79.85,59.07-82.08c-4.48-7.05-13.86-14.01-20.52-19.06Z"/>
  <path class="cls-2" d="M0,279.26c0-1.39.82-2.61,2.48-3.65,1.65-1.04,3.57-1.97,5.74-2.78s4.39-1.57,6.67-2.27c2.27-.7,3.92-1.39,4.96-2.09V77.65c-1.04-.83-2.69-1.59-4.96-2.28-2.28-.69-4.5-1.59-6.67-2.69-2.17-1.11-4.08-2.28-5.74-3.52-1.66-1.24-2.48-2.69-2.48-4.35s.36-3.73,1.08-6.21c.72-2.49,2.33-3.73,4.81-3.73h51.78c3.72,0,6.41,1.14,8.06,3.4,1.65,2.27,2.48,4.07,2.48,5.39,0,3.21-1.09,5.4-3.25,6.61-2.17,1.2-4.6,2.21-7.29,3-2.69.8-5.22,1.8-7.6,3-2.38,1.2-3.67,3.4-3.88,6.6v102.72l74.1-107.94c-.83-.55-2.38-1.17-4.65-1.86-2.28-.69-4.5-1.59-6.67-2.69s-4.14-2.35-5.89-3.73c-1.76-1.38-2.64-2.9-2.64-4.55s.36-3.73,1.09-6.21c.72-2.49,2.33-3.73,4.81-3.73h54.26c3.72,0,6.4,1.03,8.06,3.08,1.65,2.06,2.48,3.69,2.48,4.89,0,2.18-1.19,4-3.57,5.44-2.38,1.45-5.12,2.72-8.22,3.8-3.1,1.09-6.05,2.12-8.84,3.08-2.79.97-4.6,2.05-5.43,3.26l-50.23,68.16,65.42,117.69c1.03,1.86,3.25,3.48,6.67,4.88,3.41,1.39,7.49,2.78,12.25,4.18,1.86.47,3.3,1.11,4.34,1.92,1.03.81,1.55,2.38,1.55,4.7,0,1.16-.83,2.73-2.48,4.7-1.66,1.97-4.34,2.96-8.06,2.96h-58.29c-2.48,0-4.08-1.04-4.81-3.13-.73-2.09-1.09-3.83-1.09-5.22s.82-2.61,2.48-3.65c1.65-1.04,3.57-1.97,5.74-2.78,2.17-.81,4.39-1.57,6.67-2.27,2.27-.7,3.92-1.39,4.96-2.09l-52.4-99.59-31.63,41.44v51.53c0,3.48,1.13,5.86,3.41,7.14,2.27,1.28,4.81,2.21,7.6,2.79,2.79.58,5.32,1.33,7.6,2.26,2.27.93,3.41,2.9,3.41,5.92,0,1.16-.83,2.73-2.48,4.7-1.66,1.97-4.34,2.96-8.06,2.96H5.89c-2.48,0-4.08-1.04-4.81-3.13-.73-2.09-1.08-3.83-1.08-5.22Z"/>
  <path class="cls-2" d="M249.42,207.13l-73.34-69.16c-45.23-42.65,23.7-115.75,68.93-73.1,40.1-42.53,113.44,26.63,73.34,69.16l-68.93,73.1Z"/>
  <path class="cls-1" d="M249.56,176.52c-8.27.09-31.65-29.35-48.31-45.56-38.58-36.39,6.98-84.7,45.56-48.31,35.52-37.67,83.83,7.9,48.31,45.56,0,0-37.29,48.23-45.56,48.31Z"/>
  <path class="cls-1" d="M296.13,39.49s-.28,10.65,8.72,18.1c8.99,7.45,23.55,15.9,23.55,15.9,0,0,6.6-5.1.97-12.28-5.63-7.18-33.23-21.71-33.23-21.71Z"/>
  <path class="cls-1" d="M297.26,0s-3.48,17.63,9.31,32.55c12.79,14.92,34.51,33.07,34.51,33.07,0,0,12.39-6.61,5.09-20.15-7.3-13.53-48.91-45.47-48.91-45.47Z"/>
</svg>