<?xml version="1.0" encoding="UTF-8"?>
<svg id="Layer_1" xmlns="http://www.w3.org/2000/svg" viewBox="0 0 540.98 544.67">
  <defs>
    <style>
      .cls-1 {
        fill: #6a2983;
      }
    </style>
  </defs>
  <path class="cls-1" d="M540.98,271.74c-.26,46.87-11.06,90.09-32.85,130.5-14.75,27.36-33.64,51.54-56.66,72.42-32.57,29.53-70.07,50.15-112.62,61.4-14.84,3.92-29.93,6.49-45.26,7.73-13,1.05-26.01,1.13-38.99.4-22.87-1.29-45.21-5.65-66.99-12.82-42.16-13.9-78.81-36.68-109.83-68.4-33.02-33.76-55.82-73.44-68.28-119.02C2.39,317.96-.73,291.48.14,264.6c1.07-33.14,7.78-65.15,20.47-95.86,15.38-37.21,37.87-69.5,67.36-96.83,28.56-26.47,61.43-45.87,98.39-58.23,19.37-6.48,39.3-10.44,59.61-12.5,12.97-1.32,26.01-1.51,38.99-.7,43.04,2.69,83.43,14.48,120.76,36.24,34.01,19.82,62.4,45.85,85.17,77.93,20.76,29.26,35.13,61.46,43.19,96.43,4.67,20.27,6.79,40.85,6.9,60.66ZM439.68,405.72c1.24-1.09,2.23-1.8,3.04-2.69,3.23-3.52,6.6-6.94,9.57-10.68,12.13-15.3,20.17-32.72,25.88-51.27,7.64-24.85,10.52-50.3,9.7-76.25-.42-13.27-1.91-26.38-4.52-39.39-4.78-23.83-13.59-46.05-26.53-66.61-18.43-29.29-42.11-53.52-70.86-72.78-16.31-10.93-33.76-19.45-52.75-24.7-9.87-2.73-19.93-4.09-30.15-4.3-4.34-.09-5.64,1.26-5.76,5.64,0,.37,0,.74,0,1.1,0,62.47-.02,124.93.07,187.4,0,2.75.68,5.6,1.6,8.22,1.75,4.95,5.18,8.86,8.83,12.54,16.31,16.48,32.67,32.92,48.93,49.45,23.24,23.61,46.4,47.3,69.61,70.94,4.29,4.37,8.64,8.67,13.34,13.38ZM242.77,57.36c-1.34-.14-2.3-.39-3.24-.32-5.37.44-10.79.64-16.1,1.49-22.37,3.58-42.89,12.13-62.11,23.88-23.03,14.08-42.92,31.78-60.07,52.62-33.27,40.44-48.64,87.12-48.45,139.14.03,9.54.97,19.11,2.07,28.59,2.63,22.58,8.79,44.2,18.8,64.67,6.34,12.97,14.14,24.97,24,35.56.88.95,1.9,1.76,3.03,2.79,1.95-1.89,3.63-3.47,5.26-5.12,26.61-26.84,53.25-53.64,79.8-80.53,16.81-17.03,33.43-34.24,50.27-51.24,3.82-3.86,6.01-8.33,6.78-13.54.52-3.51.79-7.07.88-10.61.18-6.62.2-13.25.2-19.87.02-50.93.04-101.85-.04-152.78,0-4.86-.72-9.71-1.11-14.71ZM298.24,488.75c2.71-.22,4.9-.28,7.06-.59,15.59-2.25,30.75-6.1,45.43-11.89,17.71-6.98,33.98-16.43,48.99-28.09.92-.71,1.69-1.62,2.67-2.58-1.3-1.36-2.28-2.44-3.32-3.47-20.91-20.56-41.82-41.13-62.75-61.68-11.91-11.69-23.83-23.37-35.77-35.03-.53-.52-1.24-.86-2.31-1.58v144.91ZM241.58,343.75c-3.71,3.65-7.02,6.89-10.32,10.14-14.83,14.66-29.64,29.34-44.48,43.98-15.45,15.25-30.94,30.46-46.39,45.71-.65.64-1.1,1.49-1.85,2.51,30.5,24.17,64.68,38.37,102.96,42.85.85-3.13.97-140.75.08-145.21Z"/>
</svg>