<?xml version="1.0" encoding="UTF-8"?>
<svg id="Layer_1" data-name="Layer 1" xmlns="http://www.w3.org/2000/svg" viewBox="0 0 521.65 508.61">
  <defs>
    <style>
      .cls-1 {
        fill: #99f;
      }

      .cls-2 {
        fill: #00005b;
      }
    </style>
  </defs>
  <g id="Layer_2" data-name="Layer 2">
    <g id="Surfaces">
      <g id="Video_Audio_Surface" data-name="Video Audio Surface">
        <g id="Outline_no_shadow" data-name="Outline no shadow">
          <rect class="cls-2" width="521.65" height="508.61" rx="92.37" ry="92.37"/>
        </g>
      </g>
    </g>
    <g id="Outlined_Mnemonics_Logos" data-name="Outlined Mnemonics Logos">
      <g id="Ae">
        <path class="cls-1" d="M209.56,304.29h-80.84l-16.45,51.19c-.46,1.92-2.22,3.24-4.2,3.15h-40.94c-2.33,0-3.15-1.28-2.45-3.85l69.99-200.73c.7-2.1,1.4-4.15,2.1-6.84.92-4.67,1.39-9.41,1.4-14.17-.17-1.18.65-2.28,1.84-2.45.2-.03.41-.03.61,0h55.64c1.63,0,2.56.58,2.8,1.75l79.44,222.79c.7,2.33,0,3.5-2.1,3.5h-45.49c-1.62.18-3.11-.87-3.5-2.45l-17.85-51.89ZM141.32,261.13h55.29c-1.4-4.66-3.03-9.91-4.9-15.75-1.87-5.83-3.85-12.07-5.95-18.72-2.1-6.65-4.2-13.3-6.3-19.95-2.1-6.65-4.02-13.06-5.77-19.25-1.75-6.18-3.32-11.84-4.72-16.97h-.35c-1.97,9.45-4.42,18.8-7.35,27.99-3.27,10.5-6.59,21.23-9.97,32.19-3.38,10.97-6.71,21.12-9.97,30.44Z"/>
        <path class="cls-1" d="M407.28,284.37h-68.94c.84,6.82,3.11,13.39,6.65,19.28,3.91,5.83,9.45,10.4,15.92,13.12,8.77,3.8,18.26,5.66,27.82,5.45,7.58-.15,15.14-.97,22.57-2.48,6.65-.9,13.16-2.6,19.41-5.06,1.16-.93,1.75-.35,1.75,1.75v33.24c.06.91-.12,1.81-.53,2.62-.4.64-.94,1.17-1.57,1.57-6.92,3.07-14.21,5.24-21.68,6.46-10.15,1.91-20.47,2.79-30.79,2.62-16.57,0-30.45-2.57-41.64-7.7-10.58-4.66-19.93-11.73-27.29-20.65-6.88-8.4-12-18.1-15.05-28.52-3.02-10.29-4.55-20.95-4.55-31.67-.03-11.7,1.8-23.34,5.42-34.47,3.49-10.86,9.01-20.95,16.27-29.74,7.16-8.69,16.11-15.74,26.25-20.65,10.26-5.01,22.4-6.81,36.39-6.81,11.61-.29,23.14,1.98,33.77,6.65,8.94,3.81,16.81,9.76,22.92,17.31,5.73,7.4,10.12,15.75,12.95,24.67,2.76,8.6,4.17,17.57,4.2,26.6,0,5.13-.18,9.8-.53,14-.35,4.2-.64,7.23-.87,9.1-.19,1.6-1.54,2.8-3.15,2.8-1.4,0-3.79.17-7.17.52-3.38.35-7.58.58-12.6.7-5.02.12-10.32-.73-15.92-.73ZM338.34,252.49h45.84c5.6,0,9.74-.06,12.42-.18,1.8-.18,3.53-.75,5.08-1.68v-2.1c-.07-2.74-.54-5.45-1.4-8.05-3.88-12.27-15.48-20.44-28.35-19.95-12.03-.73-23.36,5.72-28.87,16.45-2.4,4.88-3.99,10.12-4.72,15.5Z"/>
      </g>
    </g>
  </g>
</svg>