<?xml version="1.0" encoding="UTF-8"?>
<svg id="Layer_1" data-name="Layer 1" xmlns="http://www.w3.org/2000/svg" viewBox="0 0 334.79 504">
  <defs>
    <style>
      .cls-1 {
        fill: #f24d18;
      }

      .cls-2 {
        fill: #ff7362;
      }

      .cls-3 {
        fill: #02d084;
      }

      .cls-4 {
        fill: #a358ff;
      }

      .cls-5 {
        fill: #13bdfe;
      }
    </style>
  </defs>
  <circle class="cls-5" cx="251.09" cy="252.91" r="83.7" transform="translate(-105.29 251.62) rotate(-45)"/>
  <path class="cls-2" d="M334.79,83.7c0,46.23-37.47,83.7-83.7,83.7h-83.7V0h83.7c46.23,0,83.7,37.47,83.7,83.7Z"/>
  <path class="cls-3" d="M167.39,336.61v83.7c0,14.5-3.69,28.14-10.17,40.03-14.2,26.02-41.8,43.67-73.53,43.67s-59.33-17.65-73.53-43.67c-6.48-11.89-10.17-25.53-10.17-40.03,0-46.23,37.47-83.7,83.7-83.7h83.7Z"/>
  <path class="cls-4" d="M167.39,167.39v169.21h-83.7C37.47,336.61,0,299.14,0,252.91c0-78.24,80.59-85.57,80.59-85.57,1.03.04,2.06.05,3.11.05h83.7Z"/>
  <path class="cls-1" d="M167.39,0v167.39h-83.7c-1.04,0-2.07-.02-3.11-.05C35.8,165.7,0,128.88,0,83.7S37.47,0,83.7,0h83.7Z"/>
</svg>