<?xml version="1.0" encoding="UTF-8"?>
<svg id="Layer_1" data-name="Layer 1" xmlns="http://www.w3.org/2000/svg" viewBox="0 0 521.65 508.61">
  <defs>
    <style>
      .cls-1 {
        fill: #99f;
      }

      .cls-2 {
        fill: #00005b;
      }
    </style>
  </defs>
  <g id="Layer_2" data-name="Layer 2">
    <g id="Surfaces">
      <g id="Video_Audio_Surface" data-name="Video Audio Surface">
        <g id="Outline_no_shadow" data-name="Outline no shadow">
          <path class="cls-2" d="M92.37,0h336.9c51.08,0,92.37,41.3,92.37,92.37v323.86c0,51.08-41.3,92.37-92.37,92.37H92.37c-51.08,0-92.37-41.3-92.37-92.37V92.37C0,41.3,41.3,0,92.37,0Z"/>
        </g>
      </g>
    </g>
    <g id="Outlined_Mnemonics_Logos" data-name="Outlined Mnemonics Logos">
      <g id="Pr">
        <path class="cls-1" d="M123.89,356.68v-223.66c0-1.52.65-2.39,2.17-2.39,3.69,0,7.17,0,12.17-.22,5.22-.22,10.65-.22,16.52-.43,5.87-.22,12.17-.22,18.91-.43,6.74-.22,13.26-.22,19.78-.22,17.82,0,32.6,2.17,44.77,6.74,10.87,3.69,20.87,9.78,29.13,17.82,6.96,6.96,12.39,15.43,15.87,24.78,3.26,9.13,5,18.48,5,28.26,0,18.69-4.35,34.12-13.04,46.3-8.69,12.17-20.87,21.3-34.99,26.52-14.78,5.43-31.08,7.39-48.9,7.39-5.22,0-8.69,0-10.87-.22-2.17-.22-5.22-.22-9.35-.22v69.77c.22,1.52-.87,2.83-2.39,3.04h-42.17c-1.74,0-2.61-.87-2.61-2.83ZM171.27,172.58v73.03c3.04.22,5.87.43,8.48.43h11.52c8.48,0,16.95-1.3,25-3.91,6.96-1.96,13.04-6.09,17.82-11.52,4.56-5.43,6.74-12.82,6.74-22.39.22-6.74-1.52-13.48-5-19.34-3.69-5.65-8.91-10-15.21-12.39-8.04-3.26-16.74-4.56-25.65-4.35-5.65,0-10.65,0-14.78.22-4.35-.22-7.39,0-8.91.22h0Z"/>
        <path class="cls-1" d="M318.64,185.18h38.04c2.17,0,3.91,1.52,4.56,3.48.65,1.74,1.09,3.48,1.3,5.43.43,2.17.87,4.56,1.09,6.74.22,2.39.43,5,.43,7.82,6.52-7.61,14.35-13.91,23.26-18.69,10-5.65,21.52-8.48,33.04-8.48,1.52-.22,2.83.87,3.04,2.39v43.25c0,1.74-1.09,2.39-3.48,2.39-7.82-.22-15.87.43-23.47,2.17-6.3,1.3-12.39,3.26-18.26,5.87-4.13,1.96-8.04,4.56-11.08,8.04v110.85c0,2.17-.87,3.04-2.83,3.04h-42.82c-1.74.22-3.26-.87-3.48-2.61v-121.28c0-5.22,0-10.65-.22-16.3-.22-5.65-.22-11.3-.43-16.95,0-5-.43-9.78-.87-14.78-.22-1.09.43-2.17,1.52-2.39,0-.22.43-.22.65,0h0Z"/>
      </g>
    </g>
  </g>
</svg>