<svg width="522" height="509" viewBox="0 0 522 509" fill="none" xmlns="http://www.w3.org/2000/svg">
<g clip-path="url(#clip0_116_85)">
<path d="M429.28 0H92.37C41.3555 0 0 41.3555 0 92.37V416.24C0 467.255 41.3555 508.61 92.37 508.61H429.28C480.295 508.61 521.65 467.255 521.65 416.24V92.37C521.65 41.3555 480.295 0 429.28 0Z" fill="black"/>
<path d="M209.56 304.29H128.72L112.27 355.48C111.81 357.4 110.05 358.72 108.07 358.63H67.1299C64.7999 358.63 63.9799 357.35 64.6799 354.78L134.67 154.05C135.37 151.95 136.07 149.9 136.77 147.21C137.69 142.54 138.16 137.8 138.17 133.04C138 131.86 138.82 130.76 140.01 130.59C140.21 130.56 140.42 130.56 140.62 130.59H196.26C197.89 130.59 198.82 131.17 199.06 132.34L278.5 355.13C279.2 357.46 278.5 358.63 276.4 358.63H230.91C229.29 358.81 227.8 357.76 227.41 356.18L209.56 304.29ZM141.32 261.13H196.61C195.21 256.47 193.58 251.22 191.71 245.38C189.84 239.55 187.86 233.31 185.76 226.66C183.66 220.01 181.56 213.36 179.46 206.71C177.36 200.06 175.44 193.65 173.69 187.46C171.94 181.28 170.37 175.62 168.97 170.49H168.62C166.65 179.94 164.2 189.29 161.27 198.48C158 208.98 154.68 219.71 151.3 230.67C147.92 241.64 144.59 251.79 141.33 261.11L141.32 261.13Z" fill="white"/>
<path d="M407.28 284.37H338.34C339.18 291.19 341.45 297.76 344.99 303.65C348.9 309.48 354.44 314.05 360.91 316.77C369.68 320.57 379.17 322.43 388.73 322.22C396.31 322.07 403.87 321.25 411.3 319.74C417.95 318.84 424.46 317.14 430.71 314.68C431.87 313.75 432.46 314.33 432.46 316.43V349.67C432.52 350.58 432.34 351.48 431.93 352.29C431.53 352.93 430.99 353.46 430.36 353.86C423.44 356.93 416.15 359.1 408.68 360.32C398.53 362.23 388.21 363.11 377.89 362.94C361.32 362.94 347.44 360.37 336.25 355.24C325.67 350.58 316.32 343.51 308.96 334.59C302.08 326.19 296.96 316.49 293.91 306.07C290.89 295.78 289.36 285.12 289.36 274.4C289.33 262.7 291.16 251.06 294.78 239.93C298.27 229.07 303.79 218.98 311.05 210.19C318.21 201.5 327.16 194.45 337.3 189.54C347.56 184.53 359.7 182.73 373.69 182.73C385.3 182.44 396.83 184.71 407.46 189.38C416.4 193.19 424.27 199.14 430.38 206.69C436.11 214.09 440.5 222.44 443.33 231.36C446.09 239.96 447.5 248.93 447.53 257.96C447.53 263.09 447.35 267.76 447 271.96C446.65 276.16 446.36 279.19 446.13 281.06C445.94 282.66 444.59 283.86 442.98 283.86C441.58 283.86 439.19 284.03 435.81 284.38C432.43 284.73 428.23 284.96 423.21 285.08C418.19 285.2 412.89 284.35 407.29 284.35L407.28 284.37ZM338.34 252.49H384.18C389.78 252.49 393.92 252.43 396.6 252.31C398.4 252.13 400.13 251.56 401.68 250.63V248.53C401.61 245.79 401.14 243.08 400.28 240.48C396.4 228.21 384.8 220.04 371.93 220.53C359.9 219.8 348.57 226.25 343.06 236.98C340.66 241.86 339.07 247.1 338.34 252.48V252.49Z" fill="white"/>
</g>
<defs>
<clipPath id="clip0_116_85">
<rect width="521.65" height="508.61" fill="white"/>
</clipPath>
</defs>
</svg>
