<?xml version="1.0" encoding="UTF-8"?>
<svg id="Layer_1" data-name="Layer 1" xmlns="http://www.w3.org/2000/svg" viewBox="0 0 521.65 508.61">
  <defs>
    <style>
      .cls-1 {
        fill: #300;
      }

      .cls-2 {
        fill: #ff9a00;
      }
    </style>
  </defs>
  <g id="Layer_2" data-name="Layer 2">
    <g id="Surfaces">
      <g id="Drawing_Surface" data-name="Drawing Surface">
        <g id="Outline_no_shadow" data-name="Outline no shadow">
          <rect class="cls-1" width="521.65" height="508.61" rx="92.37" ry="92.37"/>
        </g>
      </g>
    </g>
    <g id="Outlined_Mnemonics_Logos" data-name="Outlined Mnemonics Logos">
      <g id="Ai">
        <path class="cls-2" d="M252.78,305.22h-80.84l-16.45,51.09c-.46,1.92-2.23,3.24-4.2,3.15h-40.94c-2.33,0-3.15-1.28-2.45-3.85l69.99-201.56c.7-2.1,1.4-4.49,2.1-7.17.92-4.67,1.38-9.41,1.4-14.17-.17-1.18.65-2.28,1.84-2.45.2-.03.41-.03.61,0h55.64c1.63,0,2.56.58,2.8,1.75l79.44,223.96c.7,2.33,0,3.5-2.1,3.5h-45.49c-1.62.18-3.11-.87-3.5-2.45l-17.85-51.79ZM184.54,261.13h55.29c-1.4-4.66-3.03-9.91-4.9-15.75-1.87-5.83-3.85-12.07-5.95-18.72-2.1-6.65-4.2-13.3-6.3-19.95-2.1-6.65-4.02-13.06-5.77-19.25-1.75-6.18-3.32-11.84-4.72-16.97h-.35c-1.97,9.45-4.42,18.79-7.35,27.99-3.27,10.5-6.59,21.23-9.97,32.19-3.38,10.97-6.71,21.12-9.97,30.44h0Z"/>
        <path class="cls-2" d="M368.96,167.35c-7.22.29-14.22-2.51-19.25-7.7-5.01-5.41-7.65-12.58-7.35-19.95-.26-7.3,2.61-14.36,7.87-19.42,5.21-5,12.2-7.71,19.42-7.52,8.4,0,14.99,2.51,19.77,7.52,4.88,5.26,7.46,12.25,7.17,19.42.3,7.39-2.42,14.59-7.52,19.95-5.34,5.26-12.63,8.05-20.12,7.7ZM344.81,355.97v-167.27c0-2.1.93-3.15,2.8-3.15h43.04c1.86,0,2.8,1.05,2.8,3.15v167.27c0,2.33-.93,3.5-2.8,3.5h-42.69c-2.1,0-3.15-1.17-3.15-3.5Z"/>
      </g>
    </g>
  </g>
</svg>