<svg width="522" height="509" viewBox="0 0 522 509" fill="none" xmlns="http://www.w3.org/2000/svg">
<g clip-path="url(#clip0_116_75)">
<path d="M429.28 0H92.37C41.3555 0 0 41.3555 0 92.37V416.24C0 467.255 41.3555 508.61 92.37 508.61H429.28C480.295 508.61 521.65 467.255 521.65 416.24V92.37C521.65 41.3555 480.295 0 429.28 0Z" fill="black"/>
<path d="M252.78 305.22H171.94L155.49 356.31C155.03 358.23 153.26 359.55 151.29 359.46H110.35C108.02 359.46 107.2 358.18 107.9 355.61L177.89 154.05C178.59 151.95 179.29 149.56 179.99 146.88C180.91 142.21 181.37 137.47 181.39 132.71C181.22 131.53 182.04 130.43 183.23 130.26C183.43 130.23 183.64 130.23 183.84 130.26H239.48C241.11 130.26 242.04 130.84 242.28 132.01L321.72 355.97C322.42 358.3 321.72 359.47 319.62 359.47H274.13C272.51 359.65 271.02 358.6 270.63 357.02L252.78 305.23V305.22ZM184.54 261.13H239.83C238.43 256.47 236.8 251.22 234.93 245.38C233.06 239.55 231.08 233.31 228.98 226.66C226.88 220.01 224.78 213.36 222.68 206.71C220.58 200.06 218.66 193.65 216.91 187.46C215.16 181.28 213.59 175.62 212.19 170.49H211.84C209.87 179.94 207.42 189.28 204.49 198.48C201.22 208.98 197.9 219.71 194.52 230.67C191.14 241.64 187.81 251.79 184.55 261.11L184.54 261.13Z" fill="white"/>
<path d="M368.96 167.35C361.74 167.64 354.74 164.84 349.71 159.65C344.7 154.24 342.06 147.07 342.36 139.7C342.1 132.4 344.97 125.34 350.23 120.28C355.44 115.28 362.43 112.57 369.65 112.76C378.05 112.76 384.64 115.27 389.42 120.28C394.3 125.54 396.88 132.53 396.59 139.7C396.89 147.09 394.17 154.29 389.07 159.65C383.73 164.91 376.44 167.7 368.95 167.35H368.96ZM344.81 355.97V188.7C344.81 186.6 345.74 185.55 347.61 185.55H390.65C392.51 185.55 393.45 186.6 393.45 188.7V355.97C393.45 358.3 392.52 359.47 390.65 359.47H347.96C345.86 359.47 344.81 358.3 344.81 355.97Z" fill="white"/>
</g>
<defs>
<clipPath id="clip0_116_75">
<rect width="521.65" height="508.61" fill="white"/>
</clipPath>
</defs>
</svg>
