<svg width="522" height="509" viewBox="0 0 522 509" fill="none" xmlns="http://www.w3.org/2000/svg">
<g clip-path="url(#clip0_116_65)">
<path d="M92.37 0H429.27C480.35 0 521.64 41.3 521.64 92.37V416.23C521.64 467.31 480.34 508.6 429.27 508.6H92.37C41.29 508.6 0 467.3 0 416.23V92.37C0 41.3 41.3 0 92.37 0Z" fill="black"/>
<path d="M123.89 356.68V133.02C123.89 131.5 124.54 130.63 126.06 130.63C129.75 130.63 133.23 130.63 138.23 130.41C143.45 130.19 148.88 130.19 154.75 129.98C160.62 129.76 166.92 129.76 173.66 129.55C180.4 129.33 186.92 129.33 193.44 129.33C211.26 129.33 226.04 131.5 238.21 136.07C249.08 139.76 259.08 145.85 267.34 153.89C274.3 160.85 279.73 169.32 283.21 178.67C286.47 187.8 288.21 197.15 288.21 206.93C288.21 225.62 283.86 241.05 275.17 253.23C266.48 265.4 254.3 274.53 240.18 279.75C225.4 285.18 209.1 287.14 191.28 287.14C186.06 287.14 182.59 287.14 180.41 286.92C178.24 286.7 175.19 286.7 171.06 286.7V356.47C171.28 357.99 170.19 359.3 168.67 359.51H126.5C124.76 359.51 123.89 358.64 123.89 356.68ZM171.27 172.58V245.61C174.31 245.83 177.14 246.04 179.75 246.04H191.27C199.75 246.04 208.22 244.74 216.27 242.13C223.23 240.17 229.31 236.04 234.09 230.61C238.65 225.18 240.83 217.79 240.83 208.22C241.05 201.48 239.31 194.74 235.83 188.88C232.14 183.23 226.92 178.88 220.62 176.49C212.58 173.23 203.88 171.93 194.97 172.14C189.32 172.14 184.32 172.14 180.19 172.36C175.84 172.14 172.8 172.36 171.28 172.58H171.27Z" fill="white"/>
<path d="M318.64 185.18H356.68C358.85 185.18 360.59 186.7 361.24 188.66C361.89 190.4 362.33 192.14 362.54 194.09C362.97 196.26 363.41 198.65 363.63 200.83C363.85 203.22 364.06 205.83 364.06 208.65C370.58 201.04 378.41 194.74 387.32 189.96C397.32 184.31 408.84 181.48 420.36 181.48C421.88 181.26 423.19 182.35 423.4 183.87V227.12C423.4 228.86 422.31 229.51 419.92 229.51C412.1 229.29 404.05 229.94 396.45 231.68C390.15 232.98 384.06 234.94 378.19 237.55C374.06 239.51 370.15 242.11 367.11 245.59V356.44C367.11 358.61 366.24 359.48 364.28 359.48H321.46C319.72 359.7 318.2 358.61 317.98 356.87V235.59C317.98 230.37 317.98 224.94 317.76 219.29C317.54 213.64 317.54 207.99 317.33 202.34C317.33 197.34 316.9 192.56 316.46 187.56C316.24 186.47 316.89 185.39 317.98 185.17C317.98 184.95 318.41 184.95 318.63 185.17L318.64 185.18Z" fill="white"/>
</g>
<defs>
<clipPath id="clip0_116_65">
<rect width="521.65" height="508.61" fill="white"/>
</clipPath>
</defs>
</svg>
