<?xml version="1.0" encoding="UTF-8"?>
<svg id="Layer_1" data-name="Layer 1" xmlns="http://www.w3.org/2000/svg" viewBox="0 0 521.65 508.61">
  <defs>
    <style>
      .cls-1 {
        fill: #001e36;
      }

      .cls-2 {
        fill: #31a8ff;
      }
    </style>
  </defs>
  <g id="Layer_2" data-name="Layer 2">
    <g id="Surfaces">
      <g id="Photo_Surface" data-name="Photo Surface">
        <g id="Outline_no_shadow" data-name="Outline no shadow">
          <rect class="cls-1" width="521.65" height="508.61" rx="92.37" ry="92.37"/>
        </g>
      </g>
    </g>
    <g id="Outlined_Mnemonics_Logos" data-name="Outlined Mnemonics Logos">
      <g id="Ps">
        <path class="cls-2" d="M117.46,356.67v-223.61c0-1.63.7-2.45,2.1-2.45,3.73,0,7.13-.05,12.27-.18,5.13-.11,10.67-.23,16.62-.35,5.95-.12,12.25-.23,18.9-.35,6.65-.11,13.24-.17,19.77-.18,17.73,0,32.66,2.22,44.79,6.65,10.95,3.7,20.93,9.8,29.22,17.85,7.03,6.98,12.46,15.39,15.92,24.67,3.27,9.03,4.93,18.57,4.9,28.17,0,18.67-4.32,34.06-12.95,46.19-8.69,12.18-20.9,21.4-34.99,26.42-14.7,5.48-31.03,7.34-48.99,7.34-5.13,0-8.75-.06-10.85-.18-2.1-.12-5.25-.17-9.45-.18v69.82c.22,1.52-.84,2.93-2.36,3.15-.26.04-.53.04-.79,0h-41.66c-1.63,0-2.45-.93-2.45-2.8ZM164.72,172.6v72.93c3.03.24,5.83.35,8.4.35h11.55c8.5-.03,16.94-1.38,25.02-3.99,6.93-2.06,13.13-6.07,17.85-11.55,4.55-5.36,6.82-12.83,6.82-22.4.18-6.77-1.58-13.45-5.08-19.25-3.68-5.61-8.99-9.94-15.22-12.42-8.13-3.16-16.82-4.65-25.55-4.37-5.6,0-10.56.06-14.87.17-4.32.12-7.29.3-8.92.52h0Z"/>
        <path class="cls-2" d="M417.25,232.27c-6.58-3.38-13.58-5.85-20.82-7.35-7.98-1.83-16.14-2.77-24.32-2.8-4.43-.12-8.85.41-13.12,1.57-2.72.61-5.14,2.16-6.82,4.37-1.14,1.77-1.75,3.84-1.75,5.95.06,2.05.8,4.01,2.1,5.6,2.04,2.39,4.54,4.35,7.35,5.77,4.99,2.69,10.13,5.08,15.4,7.17,11.74,3.93,22.97,9.28,33.42,15.92,7.12,4.49,13.01,10.69,17.15,18.02,3.48,6.95,5.22,14.63,5.07,22.4.21,10.25-2.72,20.33-8.4,28.87-6.08,8.67-14.52,15.41-24.32,19.42-10.62,4.66-23.74,7-39.37,7-9.93.1-19.84-.84-29.57-2.8-7.67-1.41-15.13-3.76-22.22-7-1.56-.81-2.52-2.44-2.45-4.2v-37.79c-.09-.75.25-1.49.88-1.92.62-.35,1.38-.28,1.92.18,8.37,4.94,17.46,8.54,26.95,10.67,8.36,2.09,16.93,3.21,25.55,3.32,8.16,0,14.17-1.05,18.02-3.15,3.55-1.63,5.82-5.19,5.77-9.1,0-3.03-1.75-5.94-5.25-8.75-3.5-2.8-10.61-6.18-21.35-10.15-10.99-3.82-21.41-9.12-30.97-15.75-6.84-4.76-12.47-11.05-16.45-18.37-3.44-6.9-5.18-14.52-5.07-22.22-.02-9.26,2.52-18.34,7.35-26.25,5.5-8.7,13.4-15.63,22.75-19.95,10.26-5.13,23.09-7.69,38.49-7.7,9.02-.07,18.03.57,26.95,1.92,6.46.82,12.77,2.53,18.76,5.07.96.28,1.74.99,2.1,1.92.24.85.35,1.74.35,2.62v35.34c.05.84-.35,1.64-1.05,2.1-.95.47-2.06.47-3.01,0Z"/>
      </g>
    </g>
  </g>
</svg>