<svg width="522" height="509" viewBox="0 0 522 509" fill="none" xmlns="http://www.w3.org/2000/svg">
<g clip-path="url(#clip0_116_95)">
<path d="M429.28 0H92.37C41.3555 0 0 41.3555 0 92.37V416.24C0 467.255 41.3555 508.61 92.37 508.61H429.28C480.295 508.61 521.65 467.255 521.65 416.24V92.37C521.65 41.3555 480.295 0 429.28 0Z" fill="black"/>
<path d="M117.46 356.67V133.06C117.46 131.43 118.16 130.61 119.56 130.61C123.29 130.61 126.69 130.56 131.83 130.43C136.96 130.32 142.5 130.2 148.45 130.08C154.4 129.96 160.7 129.85 167.35 129.73C174 129.62 180.59 129.56 187.12 129.55C204.85 129.55 219.78 131.77 231.91 136.2C242.86 139.9 252.84 146 261.13 154.05C268.16 161.03 273.59 169.44 277.05 178.72C280.32 187.75 281.98 197.29 281.95 206.89C281.95 225.56 277.63 240.95 269 253.08C260.31 265.26 248.1 274.48 234.01 279.5C219.31 284.98 202.98 286.84 185.02 286.84C179.89 286.84 176.27 286.78 174.17 286.66C172.07 286.54 168.92 286.49 164.72 286.48V356.3C164.94 357.82 163.88 359.23 162.36 359.45C162.1 359.49 161.83 359.49 161.57 359.45H119.91C118.28 359.45 117.46 358.52 117.46 356.65V356.67ZM164.72 172.6V245.53C167.75 245.77 170.55 245.88 173.12 245.88H184.67C193.17 245.85 201.61 244.5 209.69 241.89C216.62 239.83 222.82 235.82 227.54 230.34C232.09 224.98 234.36 217.51 234.36 207.94C234.54 201.17 232.78 194.49 229.28 188.69C225.6 183.08 220.29 178.75 214.06 176.27C205.93 173.11 197.24 171.62 188.51 171.9C182.91 171.9 177.95 171.96 173.64 172.07C169.32 172.19 166.35 172.37 164.72 172.59V172.6Z" fill="white"/>
<path d="M417.25 232.27C410.67 228.89 403.67 226.42 396.43 224.92C388.45 223.09 380.29 222.15 372.11 222.12C367.68 222 363.26 222.53 358.99 223.69C356.27 224.3 353.85 225.85 352.17 228.06C351.03 229.83 350.42 231.9 350.42 234.01C350.48 236.06 351.22 238.02 352.52 239.61C354.56 242 357.06 243.96 359.87 245.38C364.86 248.07 370 250.46 375.27 252.55C387.01 256.48 398.24 261.83 408.69 268.47C415.81 272.96 421.7 279.16 425.84 286.49C429.32 293.44 431.06 301.12 430.91 308.89C431.12 319.14 428.19 329.22 422.51 337.76C416.43 346.43 407.99 353.17 398.19 357.18C387.57 361.84 374.45 364.18 358.82 364.18C348.89 364.28 338.98 363.34 329.25 361.38C321.58 359.97 314.12 357.62 307.03 354.38C305.47 353.57 304.51 351.94 304.58 350.18V312.39C304.49 311.64 304.83 310.9 305.46 310.47C306.08 310.12 306.84 310.19 307.38 310.65C315.75 315.59 324.84 319.19 334.33 321.32C342.69 323.41 351.26 324.53 359.88 324.64C368.04 324.64 374.05 323.59 377.9 321.49C381.45 319.86 383.72 316.3 383.67 312.39C383.67 309.36 381.92 306.45 378.42 303.64C374.92 300.84 367.81 297.46 357.07 293.49C346.08 289.67 335.66 284.37 326.1 277.74C319.26 272.98 313.63 266.69 309.65 259.37C306.21 252.47 304.47 244.85 304.58 237.15C304.56 227.89 307.1 218.81 311.93 210.9C317.43 202.2 325.33 195.27 334.68 190.95C344.94 185.82 357.77 183.26 373.17 183.25C382.19 183.18 391.2 183.82 400.12 185.17C406.58 185.99 412.89 187.7 418.88 190.24C419.84 190.52 420.62 191.23 420.98 192.16C421.22 193.01 421.33 193.9 421.33 194.78V230.12C421.38 230.96 420.98 231.76 420.28 232.22C419.33 232.69 418.22 232.69 417.27 232.22L417.25 232.27Z" fill="white"/>
</g>
<defs>
<clipPath id="clip0_116_95">
<rect width="521.65" height="508.61" fill="white"/>
</clipPath>
</defs>
</svg>
