<svg width="538" height="479" viewBox="0 0 538 479" fill="none" xmlns="http://www.w3.org/2000/svg">
<g clip-path="url(#clip0_116_111)">
<path d="M317.271 239.494C317.271 266.16 295.663 287.79 269 287.79C242.336 287.79 220.729 266.16 220.729 239.494C220.729 212.829 242.336 191.199 269 191.199C295.663 191.199 317.271 212.817 317.271 239.494Z" fill="black"/>
<path d="M269 129.756C120.436 129.756 0 178.897 0 239.494C0 300.092 120.436 349.232 269 349.232C417.564 349.232 538 300.103 538 239.494C538 178.885 417.564 129.745 269 129.745V129.756ZM450.758 296.363C402.565 316.021 338.023 326.847 269 326.847C199.977 326.847 135.423 316.021 87.242 296.363C46.6274 279.791 22.3848 258.533 22.3848 239.494C22.3848 220.455 46.6274 199.197 87.242 182.637C135.435 162.978 199.977 152.152 269 152.152C338.023 152.152 402.565 162.978 450.758 182.637C491.361 199.209 515.604 220.467 515.604 239.494C515.604 258.522 491.361 279.791 450.758 296.363Z" fill="black"/>
<path d="M174.011 184.631C99.7292 313.351 82.0398 442.263 134.5 472.579C186.96 502.883 289.707 423.1 364 294.38C438.282 165.649 455.96 36.7371 403.5 6.43274C351.04 -23.8716 248.282 55.911 174.011 184.631ZM409.096 110.436C402.014 162.021 379.122 223.362 344.61 283.16C310.099 342.969 268.448 393.483 227.338 425.41C192.691 452.312 162.166 462.688 145.692 453.168C129.208 443.649 122.936 412.015 128.892 368.541C135.975 316.968 158.878 255.615 193.389 195.807C227.901 135.998 269.552 85.4944 310.65 53.5678C345.297 26.6657 375.823 16.2788 392.296 25.7982C408.77 35.3176 415.053 66.9513 409.085 110.425L409.096 110.436Z" fill="black"/>
<path d="M134.5 6.42151C82.04 36.7258 99.7181 165.638 174.011 294.369C248.293 423.089 351.04 502.883 403.5 472.568C455.96 442.263 438.271 313.351 363.989 184.62C289.707 55.8998 186.96 -23.8828 134.5 6.42151ZM145.692 25.8208C162.177 16.3014 192.691 26.677 227.338 53.5904C268.448 85.5169 310.099 136.032 344.599 195.829C379.111 255.638 402.014 316.979 409.096 368.564C415.064 412.038 408.781 443.671 392.308 453.191C375.823 462.71 345.309 452.335 310.662 425.432C269.552 393.506 227.913 342.991 193.401 283.182C158.889 223.374 135.986 162.044 128.904 110.459C122.947 66.9851 129.219 35.3514 145.692 25.8321V25.8208Z" fill="black"/>
</g>
<defs>
<clipPath id="clip0_116_111">
<rect width="538" height="479" fill="white"/>
</clipPath>
</defs>
</svg>
