<?xml version="1.0" encoding="UTF-8"?>
<svg id="Layer_1" data-name="Layer 1" xmlns="http://www.w3.org/2000/svg" viewBox="0 0 477.8 425.19">
  <defs>
    <style>
      .cls-1 {
        fill: #00d8ff;
      }
    </style>
  </defs>
  <path class="cls-1" d="M281.77,212.59c0,23.67-19.19,42.87-42.87,42.87s-42.87-19.2-42.87-42.87,19.19-42.87,42.87-42.87,42.87,19.19,42.87,42.87Z"/>
  <path class="cls-1" d="M238.9,115.18C106.96,115.18,0,158.8,0,212.59s106.96,97.41,238.9,97.41,238.9-43.61,238.9-97.41-106.96-97.42-238.9-97.42ZM400.32,263.07c-42.8,17.45-100.12,27.06-161.42,27.06s-118.63-9.61-161.42-27.06c-36.07-14.71-57.6-33.58-57.6-50.48s21.53-35.77,57.6-50.47c42.8-17.45,100.12-27.06,161.42-27.06s118.62,9.61,161.42,27.06c36.06,14.71,57.59,33.58,57.59,50.47s-21.53,35.77-57.59,50.48Z"/>
  <path class="cls-1" d="M154.54,163.89c-65.97,114.26-81.68,228.69-35.09,255.6,46.59,26.9,137.84-43.92,203.82-158.18,65.97-114.27,81.67-228.7,35.08-255.6-46.59-26.9-137.85,43.92-203.81,158.18ZM363.32,98.03c-6.29,45.79-26.62,100.24-57.27,153.32-30.65,53.09-67.64,97.93-104.15,126.27-30.77,23.88-57.88,33.09-72.51,24.64-14.64-8.45-20.21-36.53-14.92-75.12,6.29-45.78,26.63-100.24,57.28-153.33,30.65-53.09,67.64-97.92,104.14-126.26,30.77-23.88,57.88-33.1,72.51-24.65,14.63,8.45,20.21,36.53,14.91,75.12Z"/>
  <path class="cls-1" d="M119.45,5.7c-46.59,26.9-30.89,141.33,35.09,255.6,65.97,114.26,157.22,185.09,203.81,158.18,46.59-26.9,30.88-141.33-35.09-255.6C257.29,49.62,166.04-21.2,119.45,5.7ZM129.39,22.92c14.64-8.45,41.74.76,72.51,24.65,36.51,28.34,73.5,73.18,104.14,126.26,30.65,53.09,50.99,107.54,57.28,153.33,5.3,38.59-.28,66.67-14.91,75.12-14.64,8.45-41.74-.76-72.51-24.64-36.51-28.34-73.49-73.18-104.14-126.27-30.65-53.09-50.99-107.53-57.28-153.32-5.29-38.59.28-66.67,14.91-75.12Z"/>
</svg>